<?xml version="1.0" encoding="UTF-8"?>
<svg id="Layer_1" data-name="Layer 1" xmlns="http://www.w3.org/2000/svg" version="1.1" viewBox="0 0 24 24">
  <defs>
    <style>
      .cls-1 {
        fill: #666;
        stroke-width: 0px;
      }
    </style>
  </defs>
  <path class="cls-1" d="M6,17.3c.8-.6,1.8-1.1,2.8-1.5,1-.4,2.1-.5,3.2-.5s2.2.2,3.2.5c1,.4,1.9.9,2.8,1.5.6-.7,1.1-1.5,1.5-2.4.4-.9.5-1.9.5-2.9,0-2.2-.8-4.1-2.3-5.7s-3.4-2.3-5.7-2.3-4.1.8-5.7,2.3c-1.6,1.6-2.3,3.4-2.3,5.7s.2,2,.5,2.9c.4.9.9,1.7,1.5,2.4ZM12,12.7c-.9,0-1.7-.3-2.3-.9-.6-.6-.9-1.4-.9-2.3s.3-1.7.9-2.3c.6-.6,1.4-.9,2.3-.9s1.7.3,2.3.9c.6.6.9,1.4.9,2.3s-.3,1.7-.9,2.3c-.6.6-1.4.9-2.3.9ZM12,21.5c-1.3,0-2.6-.2-3.7-.7-1.2-.5-2.2-1.2-3-2-.9-.9-1.5-1.9-2-3-.5-1.2-.7-2.4-.7-3.7s.2-2.6.7-3.7c.5-1.2,1.2-2.2,2-3,.9-.9,1.9-1.5,3-2,1.2-.5,2.4-.7,3.7-.7s2.6.2,3.7.7,2.2,1.2,3,2c.9.9,1.5,1.9,2,3,.5,1.2.7,2.4.7,3.7s-.2,2.6-.7,3.7c-.5,1.2-1.2,2.2-2,3-.9.9-1.9,1.5-3,2-1.2.5-2.4.7-3.7.7ZM12,20c.9,0,1.8-.1,2.6-.4.8-.3,1.6-.7,2.2-1.2-.7-.5-1.4-.9-2.2-1.2-.8-.3-1.7-.4-2.6-.4s-1.8.1-2.6.4c-.8.3-1.6.7-2.2,1.2.7.5,1.4.9,2.2,1.2.8.3,1.7.4,2.6.4ZM12,11.2c.5,0,.9-.2,1.2-.5.3-.3.5-.8.5-1.2s-.2-.9-.5-1.2c-.3-.3-.8-.5-1.2-.5s-.9.2-1.2.5c-.3.3-.5.8-.5,1.2s.2.9.5,1.2c.3.3.8.5,1.2.5Z"/>
</svg>