<?xml version="1.0" encoding="UTF-8"?>
<svg id="Layer_1" data-name="Layer 1" xmlns="http://www.w3.org/2000/svg" version="1.1" viewBox="0 0 24 24">
  <defs>
    <style>
      .cls-1 {
        fill: #666;
        stroke-width: 0px;
      }
    </style>
  </defs>
  <path class="cls-1" d="M11.3,18.8h1.4v-1.2c.8-.1,1.5-.4,2.1-.9.6-.5.9-1.2.9-2.2s-.2-1.3-.6-1.9c-.4-.5-1.2-1-2.4-1.5-1.1-.4-1.7-.7-2.1-.9-.3-.3-.5-.6-.5-1.1,0-.5.2-.9.5-1.2s.8-.4,1.5-.4.9.1,1.3.4c.3.2.6.6.7.9l1.2-.5c-.2-.5-.5-1-1-1.4-.5-.4-1-.6-1.6-.6v-1.2h-1.4v1.2c-.9.2-1.5.5-2,1-.5.5-.7,1.1-.7,1.8s.2,1.4.7,1.8c.5.5,1.2.9,2.2,1.2,1.1.4,1.8.7,2.2,1,.4.3.6.7.6,1.2s-.2,1.1-.7,1.4c-.5.3-1,.4-1.5.4s-1.1-.2-1.5-.5c-.4-.3-.8-.8-1-1.5l-1.3.5c.3.7.6,1.3,1.1,1.8.5.4,1.1.7,1.8.9v1.3ZM12,21.5c-1.3,0-2.5-.2-3.7-.7-1.2-.5-2.2-1.2-3-2-.9-.9-1.5-1.9-2-3-.5-1.2-.7-2.4-.7-3.7s.2-2.5.7-3.7c.5-1.2,1.2-2.2,2-3s1.9-1.5,3-2c1.2-.5,2.4-.7,3.7-.7s2.5.2,3.7.7c1.2.5,2.2,1.2,3,2s1.5,1.9,2,3c.5,1.2.7,2.4.7,3.7s-.2,2.5-.7,3.7c-.5,1.2-1.2,2.2-2,3-.9.9-1.9,1.5-3,2-1.2.5-2.4.7-3.7.7ZM12,20c2.2,0,4.1-.8,5.7-2.3s2.3-3.4,2.3-5.7-.8-4.1-2.3-5.7-3.4-2.3-5.7-2.3-4.1.8-5.7,2.3-2.3,3.4-2.3,5.7.8,4.1,2.3,5.7,3.4,2.3,5.7,2.3Z"/>
</svg>